<?xml version="1.0" encoding="UTF-8"?>
<!DOCTYPE svg PUBLIC "-//W3C//DTD SVG 1.1//EN" "http://www.w3.org/Graphics/SVG/1.1/DTD/svg11.dtd">
<!-- Creator: CorelDRAW 2018 (64-Bit) -->
<svg xmlns="http://www.w3.org/2000/svg" xml:space="preserve" width="89.1953mm" height="43.9925mm" version="1.1" style="shape-rendering:geometricPrecision; text-rendering:geometricPrecision; image-rendering:optimizeQuality; fill-rule:evenodd; clip-rule:evenodd"
viewBox="0 0 2060.82 1016.43"
 xmlns:xlink="http://www.w3.org/1999/xlink">
 <defs>
  <style type="text/css">
   <![CDATA[
    .fil0 {fill:#0062B2}
    .fil2 {fill:#E0ECF5}
    .fil1 {fill:#E51836}
   ]]>
  </style>
 </defs>
 <g id="Layer_x0020_1">
  <metadata id="CorelCorpID_0Corel-Layer"/>
  <g id="_2440614502768">
   <g>
    <path class="fil0" d="M573.93 684.66l87.26 0c89.24,0 174.51,-85.48 174.51,-174.51l0 -121.19c-83.27,0 -66.86,64.19 -72.78,140.51 -6.5,83.74 -54.56,111.56 -125.97,111.56 -23.02,0 -13.35,-57.57 -20.11,-120.47 -4.4,-40.89 -8.97,-84.67 -8.97,-131.61 -33.25,0 -52.56,12.69 -62.56,34.39 -10.58,22.97 -2.47,62.3 -0.04,91.22 2.16,25.64 7.33,61.5 9.11,87.85 1.41,20.88 3.44,27.61 4.48,44 1.22,19.19 -5.74,38.24 15.08,38.24z"/>
    <path class="fil0" d="M1005.37 437.44l130.89 0c-15.39,22.99 -24.24,26.97 -24.24,67.87l0 179.36c24.52,0 44.79,-2.37 61.3,-25.95 20.02,-28.6 11.41,-176.16 11.41,-216.42 32.9,-7.67 43.63,-6.27 43.63,-48.48 -251.91,0 -263.94,-17.53 -222.99,43.63z"/>
    <path class="fil0" d="M31 418.05c11.69,43.79 37.1,14.54 92.11,14.54 99.55,0 77.56,142.29 77.56,252.07 79.47,0 72.71,-54.71 72.71,-121.19 0,-51.81 -5.51,-96.41 -28.2,-126.92 -36.81,-49.53 -108.62,-53.68 -169.31,-41.5 -19.63,3.94 -34.11,6.93 -44.87,22.99z"/>
    <path class="fil0" d="M292.77 403.5l19.39 33.93c14.91,0 116.34,-27.73 116.34,67.87l0 179.36c91.19,0 72.71,-49.22 72.71,-169.67 0,-76.52 -58.52,-126.04 -135.73,-126.04 -30.12,0 -49.06,9.03 -72.71,14.54z"/>
    <path class="fil0" d="M40.69 524.69l0 159.97c84.67,0 72.71,-47.37 72.71,-145.43 0,-61.69 -72.71,-47.66 -72.71,-14.54z"/>
    <path class="fil0" d="M651.49 466.52l0 116.34c0,34.34 67.86,-7.31 67.86,-67.87l0 -126.04c-48.92,0 -67.86,28.86 -67.86,77.56z"/>
    <path class="fil0" d="M1267.14 427.74l0 150.28c76.38,-1.7 72.71,-76.76 72.71,-126.04 0,-88.74 -72.71,-71.78 -72.71,-24.24z"/>
   </g>
   <g>
    <path class="fil1" d="M876.53 910.09c-25.35,-18.58 9.84,-73.15 -29.09,-77.56 -30.5,-3.46 -60.26,104.01 -94.95,147.51 -58.18,72.93 53.74,28.57 75.56,-65.1l9.69 0c2.3,27.6 13.21,48.48 38.78,48.48 23.34,0 47.34,-63.19 58.39,-82.2 30.63,-52.71 45.92,-65.61 38.57,-97.17 -24.03,0.54 -23.55,4.93 -33.22,20.11 -16.31,25.59 -58.66,84.13 -63.73,105.93z"/>
    <path class="fil1" d="M168.78 939.17c0,11.35 8.05,19.39 19.39,19.39 49.79,0 104.24,-191.45 154.2,-228.76 13.03,-9.73 27.39,-14.69 44.83,-18.19 28.42,-5.69 41.12,2.31 43.35,-24.52 -11.84,-6.65 -8.97,-4.85 -29.08,-4.85 -138.72,0 -156.02,170.69 -204.68,221.91 -8.64,9.09 -28.01,20.88 -28.01,35.01z"/>
    <path class="fil1" d="M532.35 958.56c62.63,0 101.08,-185.95 159.72,-228.09 12.56,-9.03 25.71,-15.21 44.15,-18.87 28.4,-5.63 41.13,2.28 43.36,-24.51 -11.84,-6.65 -8.97,-4.85 -29.09,-4.85 -118.77,0 -146.48,126.36 -189.97,202.69 -22.17,38.91 -42.37,32.3 -41.52,53.69 0.2,5.06 5.65,19.93 13.34,19.93z"/>
    <path class="fil1" d="M663.24 866.46l72.71 4.85c-1.76,21.11 -8,26.26 -22.92,35.25 -55.3,33.28 -96.21,-9.08 -101.85,18.43 -8.69,42.39 134.6,42.64 163.89,-24.49 27.12,-62.13 -41.2,-85.79 -93.52,-64.19 -17.4,7.19 -17.83,8.05 -18.32,30.16z"/>
    <path class="fil1" d="M57.29 851.92c15.48,7.43 26.59,3.02 43.13,10.19 22.29,9.67 42.5,52.82 5.35,52.82 -36.27,0 -44.13,-56.47 -81.58,0.83 -2.8,4.29 -22.32,33.42 -22.97,36.2 -10.7,46.03 52.69,-20.22 56.07,-22.49 52.77,35.34 106.65,2.89 106.65,-29.08 0,-62.75 -96.11,-92.5 -106.65,-48.48z"/>
    <path class="fil1" d="M294.82 856.76c18.34,-0.41 96.95,-32.77 96.95,29.09 0,42.2 -21.76,42.45 -38.78,67.86 37.31,31.17 111.56,-75.83 51.6,-119.47 -28.15,-20.48 -56.91,-16.89 -86.52,-7.54 -19.18,6.05 -22.73,6.18 -23.26,30.06z"/>
    <path class="fil1" d="M304.52 895.54l33.94 0c-9.79,36.66 -45.19,22.84 -53.33,53.32 22.72,18.98 87.26,-24.95 87.26,-53.32 0,-13.09 -2.31,-13.37 -4.85,-24.24 -21.4,-4.99 -59.72,-15.38 -63.02,24.24z"/>
   </g>
   <g>
    <path class="fil1" d="M1783.22 645.88c-22.18,12.77 -35.52,-9.59 -65.25,-19.8 -2.13,26.47 -8.34,19.86 -58.19,19.85 -69.06,-0.01 -125.83,-19.58 -145.69,-96.73 -11.59,-45.04 5.36,-93.06 16.8,-134.02 15.41,-55.21 26.86,-65 94.97,-65l0 -24.24c-98.76,0 -115.67,-15.69 -134.14,50.07l-61.13 220.27c-7.78,31.11 0.25,50.79 19.29,70.45 38.38,39.66 89.51,27.62 161.43,27.62 125.03,0 253.76,3.04 378.31,0.19 78.62,-1.8 78.76,-41.12 62.94,-106.96 -6.02,-25.03 -12.91,-47.59 -19.48,-72.62 -5.94,-22.64 -17.36,-52.83 -19.42,-77.54l-48.48 0c0,36.06 14.9,52.16 14.96,87.29 0.1,58.9 -42.41,104.19 -96.03,117.64 -23.3,5.85 -69.08,3.51 -100.9,3.51z"/>
    <path class="fil1" d="M1718.24 107.8l-0.39 8.92 -0.37 8.2 0 14.23 0 10.01 0.75 11.96 -0.25 82.41c4.64,21.18 34.02,52.19 53.3,58.21l0 -182.44c-1.85,-3.93 -1.16,2.23 -4.04,-11.45 -0.57,-2.7 -0.58,-10.67 -0.69,-13.81l0.58 -8.96 1.93 -11.21c2.18,-12.24 1.31,-21.65 3.96,-32.36 4.97,-20.01 7.29,-0.82 7.96,-30.66 -27.34,-14.47 -50.22,-14.47 -77.56,0 1.29,57.76 12.05,-30.18 14.82,96.95z"/>
    <path class="fil1" d="M1718.23 481.06l-0.74 11.96 0.37 8.2 0 13 0 11.24 0.39 13.77 -0.25 33.93c3.2,25.6 32.24,56.49 53.3,63.05l0 -147.87 -4.16 -8.8 -0.58 -8.96 0 -13 0.58 -8.96 4.19 -20.9 0 -53.32c-2.86,-21.72 -10.04,-21.1 -21.9,-40.5l-20.05 -20.05 -11.41 -4.82 0.27 172.02z"/>
    <path class="fil1" d="M1863.39 350.18c59.04,0 87.64,19.05 92.1,72.71l48.48 0c0,-22.99 -10.33,-96.95 -53.33,-96.95l-87.26 0 0 24.24z"/>
    <path class="fil0" d="M1760.71 336.52c17.45,6.44 33.02,34.98 35.15,57.49 2.9,30.66 -13.19,53.67 -29.31,63.59l0 13c14.99,-4 9.84,-0.76 18.99,-13.71 42,-59.43 23.3,-95.66 -35.02,-153.8 -45.63,-45.48 -105.29,-92.59 -33.03,-163.93l0 -14.23c-40.13,21.68 -56.02,78.94 -33.87,119.07 28.83,52.22 65.47,65.24 77.09,92.52z"/>
    <path class="fil0" d="M1767.13 479.55l4.16 8.8c34.5,-17.57 77.35,-77.67 34.02,-143.11 -4.57,-6.9 -10.16,-16.24 -15.89,-22.89 -8.31,-9.68 -10.86,-9.78 -18.14,-20.61 -19.29,-6.02 -48.67,-37.02 -53.3,-58.21 -10.19,-7.45 -18.68,-23.09 -19.35,-39.16 -0.53,-12.93 7.34,-27.45 14.94,-38.02l4.66 -5.23 -0.75 -11.96c-29.83,20.62 -32.53,63.03 -11.64,96.97 18.2,29.58 38.56,46.59 62.03,68.62 72.46,68.02 52.02,139.2 -0.74,164.8z"/>
    <path class="fil0" d="M1768.75 108.58l77.83 -23.5c-22.44,14.53 -49.45,17.9 -77.83,23.5zm0.31 -34.71l-1.93 11.21c18.94,-5.16 32.1,-16.89 44.44,-19.62 17.49,-3.86 31.3,0.62 42.08,14.25l-24.2 -5.44c-6.62,10.57 3.7,4.31 -9.7,8.55 -8.53,-17.37 -8.53,-7.69 -53.21,11.21 0.12,3.15 0.12,11.12 0.69,13.81 2.88,13.68 2.19,7.52 4.04,11.45 48.1,-19.76 36.3,-6.26 59.99,-14.53 30.69,-10.72 13.28,-24.13 46.66,-16.36l0 -9.69c-29.65,-2.47 -26.48,-31.54 -76.66,-18.5 -12.98,3.37 -8.48,9.12 -32.22,13.65z"/>
    <path class="fil0" d="M1717.97 626.08c29.73,10.21 43.07,32.57 65.25,19.8l-11.93 -9.66c-21.06,-6.56 -50.11,-37.45 -53.3,-63.05 -5.06,-4.21 -4.64,5.2 -5.47,-14.7 -0.78,-18.96 1.67,-14.16 5.72,-19.23l-0.39 -13.77c-38.94,30.11 6.12,75.15 16.7,88.98 8.17,10.67 3.08,3.07 8.43,14.58 -25.69,-7.04 -57.13,-35.71 -62.76,-62.02 -5.43,-25.36 7.07,-48.3 22.03,-63.05 6.62,-6.53 7.16,-4.13 15.24,-10.94l0.74 -11.96c-18.89,12.22 -50.19,40.62 -49.06,72.56 1.16,33 28.26,59.82 48.8,72.46z"/>
    <path class="fil2" d="M1766.55 470.6l0.58 8.96c52.76,-25.6 73.2,-96.78 0.74,-164.8 -23.47,-22.04 -43.83,-39.04 -62.03,-68.62 -20.88,-33.94 -18.19,-76.35 11.64,-96.97l0 -10.01c-72.25,71.34 -12.6,118.45 33.03,163.93 58.33,58.14 77.02,94.38 35.02,153.8 -9.15,12.95 -4,9.71 -18.99,13.71z"/>
    <path class="fil0" d="M1717.97 309.05l11.41 4.82 -17.61 -25.42c-6.56,-6.13 -13.63,-11.73 -19.56,-19.24 -44.64,-56.43 -27.57,-115.73 25.65,-152.48l0.39 -8.92c-29.07,7.55 -59.4,53.21 -58.71,101.95 0.66,46.64 34.9,75.2 58.44,99.29z"/>
    <path class="fil2" d="M1717.85 525.47l0 -11.24c-33.22,24.38 -17.44,49.35 -8.07,84.69l-19.25 -22.83c-16.07,-32.76 3.62,-56.86 27.32,-74.86l-0.37 -8.2c-8.08,6.8 -8.62,4.4 -15.24,10.94 -14.96,14.75 -27.46,37.68 -22.03,63.05 5.64,26.32 37.07,54.99 62.76,62.02 -5.34,-11.51 -0.26,-3.91 -8.43,-14.58 -10.58,-13.83 -55.64,-58.88 -16.7,-88.98z"/>
    <path class="fil2" d="M1729.38 313.87l20.05 20.05 11.28 2.6c-11.61,-27.28 -48.26,-40.31 -77.09,-92.52 -22.16,-40.13 -6.27,-97.39 33.87,-119.07l0.37 -8.2c-53.21,36.75 -70.29,96.05 -25.65,152.48 5.94,7.51 13.01,13.11 19.56,19.24l17.61 25.42z"/>
    <path class="fil0" d="M1717.85 514.23l0 -13c-23.7,18 -43.39,42.1 -27.32,74.86l19.25 22.83c-9.37,-35.35 -25.15,-60.31 8.07,-84.69z"/>
    <path class="fil2" d="M1767.13 448.65l-0.58 8.96c16.12,-9.92 32.21,-32.94 29.31,-63.59 -2.13,-22.51 -17.7,-51.05 -35.15,-57.49 12.81,42.17 59.16,51.48 6.42,112.13z"/>
    <path class="fil0" d="M1771.33 374.42c6.83,7.91 9.43,7.37 10.12,24.29 1.01,24.9 -9.34,28.13 -10.12,29.04l-4.19 20.9c52.73,-60.65 6.38,-69.96 -6.42,-112.13l-11.28 -2.6c11.85,19.4 19.04,18.78 21.9,40.5z"/>
    <path class="fil2" d="M1767.13 85.08l-0.58 8.96c44.68,-18.9 44.68,-28.58 53.21,-11.21 13.4,-4.24 3.08,2.02 9.7,-8.55l24.2 5.44c-10.79,-13.63 -24.59,-18.11 -42.08,-14.25 -12.34,2.73 -25.5,14.46 -44.44,19.62z"/>
    <path class="fil2" d="M1768.75 108.58c28.38,-5.6 55.4,-8.97 77.83,-23.5l-77.83 23.5z"/>
   </g>
  </g>
 </g>
</svg>
